<svg width="102" height="55" viewBox="0 0 102 55" fill="none" xmlns="http://www.w3.org/2000/svg">
<path d="M14.2301 0.273167C9.01307 1.34316 4.51757 4.40854 1.57607 8.91986C0.826823 10.0188 0.271823 11.002 0.355073 11.0309C0.410573 11.0888 2.02007 11.4936 3.93482 11.9274C5.84957 12.3612 8.15282 13.0842 9.06857 13.5179C11.2331 14.559 19.0863 20.1403 23.7761 23.9865C26.1348 25.9241 29.2151 27.5724 31.8236 28.3243C33.7383 28.8738 34.5153 28.9316 37.4291 28.787C41.0921 28.6424 41.1198 28.6424 41.9523 30.3197C43.1733 32.72 43.3676 38.6772 42.4796 44.9237C41.5083 51.7774 41.6193 53.686 43.0901 54.4668C44.6718 55.3344 44.8661 55.0163 44.9216 51.2279C45.0326 45.502 46.1426 41.1642 48.0573 38.9375C49.0286 37.7807 49.1673 37.7229 49.7223 38.0699C50.8323 38.764 55.1058 40.3834 57.2426 40.9329C60.2951 41.6848 66.2613 41.6269 69.5081 40.7883C73.3098 39.8051 77.0838 38.1567 80.8023 35.8721C86.7131 32.1994 92.0133 30.3776 97.5356 30.1173C100.116 30.0016 101.06 29.857 101.06 29.5678C101.06 28.6424 98.1461 23.3214 96.5643 21.3838C92.2631 16.0917 85.7141 12.6793 77.7221 11.5225C72.3941 10.7417 63.0423 12.3901 58.1861 14.935C52.9136 17.6822 49.9443 21.4706 48.5846 27.1387C48.0851 29.163 48.0018 30.1462 48.1128 32.9802C48.2516 36.2191 48.2238 36.3926 47.6688 36.7975C47.3358 37.0289 46.6143 37.8675 46.0871 38.6772C45.5876 39.4869 45.0881 40.1521 45.0048 40.1521C44.9216 40.1521 44.8383 38.764 44.8383 37.0289C44.8383 33.4429 44.3388 31.303 42.9236 28.8159L41.9801 27.1387L42.9236 25.0276C44.1168 22.3671 44.4221 20.8922 44.4498 18.2895C44.4498 13.5469 43.0068 9.64283 40.1208 6.69312C37.2071 3.71449 31.8236 1.31424 25.8573 0.38884C22.9991 -0.0738602 16.2281 -0.131695 14.2301 0.273167Z" fill="white"/>
</svg>
